# xmcd
#
# Track frame offsets: 
#        150
#        13550
#        26844
#        41933
#        60429
#        75678
#        93833
#        109702
#        117826
#        129272
#        143407
#        159976
#        175365
#        193060
#        199004
#        212678
#        227881
#        244605
#        259555
#        270910
#        296175
#        308608
#
# Disc length: 4298 seconds
#
# Revision: 1
# Processed by: cddbd v1.5.2PL0 Copyright (c) Steve Scherf et al.
# Submitted via: ExactAudioCopy v0.95b4
#
DISCID=2610c816
DTITLE=Götz Alsmann - Mein Geheimnis (Live)
DYEAR=2008
DGENRE=Jazz
TTITLE0=Hey, hey grosses Mädchen (Live)
TTITLE1=Ein Gläschen Wein und du (Live)
TTITLE2=Indiskret (Live)
TTITLE3=Wenn ich in Stimmung bin (Live)
TTITLE4=Der blaue Montag (Live)
TTITLE5=Ein Traum (Live)
TTITLE6=Irgendwo, Irgendwann (Live)
TTITLE7=Die alte Clofrau (Live)
TTITLE8=Vorsicht, Vorsicht (Live)
TTITLE9=Letkiss (Live)
TTITLE10=Du bist mein Geheimnis (Live)
TTITLE11=Wenn es Frühling wird (Live)
TTITLE12=Ich habe mich so an dich gewöhnt (Live)
TTITLE13=Gestern Abend ging ich aus (Live)
TTITLE14=Wie komm ich bloss an diesem grossen Hund vorbei (Live)
TTITLE15=Zugnovelle (Live)
TTITLE16=Weisst du es noch (Live)
TTITLE17=Wie immer (Live)
TTITLE18=Kokettier nicht mit mir (Live)
TTITLE19=Bei dir wars immer so schön (Live)
TTITLE20=Ausgerechnet du (Live)
TTITLE21=Extralied: Liebesschimmel (Live)
EXTD=YEAR: 2008
EXTT0=
EXTT1=
EXTT2=
EXTT3=
EXTT4=
EXTT5=
EXTT6=
EXTT7=
EXTT8=
EXTT9=
EXTT10=
EXTT11=
EXTT12=
EXTT13=
EXTT14=
EXTT15=
EXTT16=
EXTT17=
EXTT18=
EXTT19=
EXTT20=
EXTT21=
PLAYORDER=
